<mxfile host="app.diagrams.net" modified="2021-06-21T06:10:28.966Z" agent="5.0 (Macintosh; Intel Mac OS X 11_0_0) AppleWebKit/537.36 (KHTML, like Gecko) Chrome/86.0.4240.272 Whale/2.9.118.16 Safari/537.36" etag="h-VsvMkOvPu71l6qpLyr" version="14.8.0" type="github">
  <diagram id="tOZOuDFFj2JcOAmi0O1I" name="Page-1">
    <mxGraphModel dx="2397" dy="1179" grid="0" gridSize="10" guides="0" tooltips="1" connect="0" arrows="0" fold="1" page="0" pageScale="1" pageWidth="827" pageHeight="1169" math="0" shadow="0">
      <root>
        <mxCell id="0" />
        <mxCell id="1" parent="0" />
        <mxCell id="Kt9bEg5-UDYtah8IdJmg-1" value="CPolicy" style="html=1;" parent="1" vertex="1">
          <mxGeometry x="50" y="380" width="110" height="50" as="geometry" />
        </mxCell>
        <mxCell id="Kt9bEg5-UDYtah8IdJmg-2" value="«abstract»&lt;br&gt;&lt;b&gt;CPolicyRule&lt;/b&gt;" style="html=1;" parent="1" vertex="1">
          <mxGeometry x="239" y="380" width="110" height="50" as="geometry" />
        </mxCell>
        <mxCell id="Kt9bEg5-UDYtah8IdJmg-3" value="CPolicyRuleFile" style="html=1;" parent="1" vertex="1">
          <mxGeometry x="160" y="520" width="110" height="50" as="geometry" />
        </mxCell>
        <mxCell id="Kt9bEg5-UDYtah8IdJmg-4" value="CPolicyRuleWorksFile" style="html=1;" parent="1" vertex="1">
          <mxGeometry x="320" y="520" width="130" height="50" as="geometry" />
        </mxCell>
        <mxCell id="Kt9bEg5-UDYtah8IdJmg-16" value="" style="endArrow=block;endFill=1;html=1;edgeStyle=orthogonalEdgeStyle;align=left;verticalAlign=top;exitX=1;exitY=0.5;exitDx=0;exitDy=0;" parent="1" source="Kt9bEg5-UDYtah8IdJmg-1" edge="1">
          <mxGeometry x="-1" relative="1" as="geometry">
            <mxPoint x="410" y="670" as="sourcePoint" />
            <mxPoint x="240" y="405" as="targetPoint" />
          </mxGeometry>
        </mxCell>
        <mxCell id="Kt9bEg5-UDYtah8IdJmg-17" value="1" style="edgeLabel;resizable=0;html=1;align=left;verticalAlign=bottom;" parent="Kt9bEg5-UDYtah8IdJmg-16" connectable="0" vertex="1">
          <mxGeometry x="-1" relative="1" as="geometry" />
        </mxCell>
        <mxCell id="Kt9bEg5-UDYtah8IdJmg-18" value="*" style="text;html=1;align=center;verticalAlign=middle;resizable=0;points=[];autosize=1;strokeColor=none;" parent="1" vertex="1">
          <mxGeometry x="220" y="390" width="20" height="20" as="geometry" />
        </mxCell>
        <mxCell id="Kt9bEg5-UDYtah8IdJmg-19" value="CPolicyRuleRegister" style="html=1;" parent="1" vertex="1">
          <mxGeometry x="440" y="380" width="120" height="50" as="geometry" />
        </mxCell>
        <mxCell id="Kt9bEg5-UDYtah8IdJmg-20" value="" style="endArrow=open;endSize=12;dashed=1;html=1;exitX=0;exitY=0.5;exitDx=0;exitDy=0;" parent="1" source="Kt9bEg5-UDYtah8IdJmg-19" edge="1">
          <mxGeometry width="160" relative="1" as="geometry">
            <mxPoint x="510" y="670" as="sourcePoint" />
            <mxPoint x="350" y="405" as="targetPoint" />
          </mxGeometry>
        </mxCell>
        <mxCell id="Kt9bEg5-UDYtah8IdJmg-31" value="" style="group" parent="1" vertex="1" connectable="0">
          <mxGeometry x="430" y="110" width="370" height="190" as="geometry" />
        </mxCell>
        <mxCell id="Kt9bEg5-UDYtah8IdJmg-27" value="" style="rounded=0;whiteSpace=wrap;html=1;" parent="Kt9bEg5-UDYtah8IdJmg-31" vertex="1">
          <mxGeometry width="370" height="190" as="geometry" />
        </mxCell>
        <mxCell id="Kt9bEg5-UDYtah8IdJmg-21" value="g_policy_rule_map" style="ellipse;whiteSpace=wrap;html=1;" parent="Kt9bEg5-UDYtah8IdJmg-31" vertex="1">
          <mxGeometry x="70" y="10" width="120" height="30" as="geometry" />
        </mxCell>
        <mxCell id="Kt9bEg5-UDYtah8IdJmg-24" value="&lt;span&gt;POLICY_RULE_REGISTER_CLS(module_name, *CPolicyRule)&lt;/span&gt;" style="rounded=1;whiteSpace=wrap;html=1;" parent="Kt9bEg5-UDYtah8IdJmg-31" vertex="1">
          <mxGeometry x="10" y="140" width="350" height="30" as="geometry" />
        </mxCell>
        <mxCell id="Kt9bEg5-UDYtah8IdJmg-25" value="&lt;span&gt;AfxCreatePolicyRule(module_name)&lt;/span&gt;" style="rounded=1;whiteSpace=wrap;html=1;" parent="Kt9bEg5-UDYtah8IdJmg-31" vertex="1">
          <mxGeometry x="10" y="80" width="210" height="30" as="geometry" />
        </mxCell>
        <mxCell id="Kt9bEg5-UDYtah8IdJmg-28" value="&lt;b&gt;GET PolicyRule&lt;/b&gt;" style="text;html=1;align=center;verticalAlign=middle;resizable=0;points=[];autosize=1;strokeColor=none;" parent="Kt9bEg5-UDYtah8IdJmg-31" vertex="1">
          <mxGeometry x="10" y="60" width="100" height="20" as="geometry" />
        </mxCell>
        <mxCell id="Kt9bEg5-UDYtah8IdJmg-29" value="&lt;b&gt;SET PolicyRule&lt;/b&gt;" style="text;html=1;align=center;verticalAlign=middle;resizable=0;points=[];autosize=1;strokeColor=none;" parent="Kt9bEg5-UDYtah8IdJmg-31" vertex="1">
          <mxGeometry x="10" y="120" width="100" height="20" as="geometry" />
        </mxCell>
        <mxCell id="Kt9bEg5-UDYtah8IdJmg-30" value="&lt;b&gt;GLOBAL&lt;/b&gt;" style="text;html=1;align=center;verticalAlign=middle;resizable=0;points=[];autosize=1;strokeColor=none;" parent="Kt9bEg5-UDYtah8IdJmg-31" vertex="1">
          <mxGeometry x="5" y="15" width="70" height="20" as="geometry" />
        </mxCell>
        <mxCell id="Kt9bEg5-UDYtah8IdJmg-33" value="" style="endArrow=none;dashed=1;html=1;dashPattern=1 3;strokeWidth=2;" parent="1" target="Kt9bEg5-UDYtah8IdJmg-27" edge="1">
          <mxGeometry width="50" height="50" relative="1" as="geometry">
            <mxPoint x="540" y="390" as="sourcePoint" />
            <mxPoint x="590" y="340" as="targetPoint" />
          </mxGeometry>
        </mxCell>
        <mxCell id="IQgrabaNGZLkLJbX3BjF-1" value="«abstract»&lt;br&gt;&lt;b&gt;CCloudDataTransferFilter&lt;/b&gt;" style="html=1;" vertex="1" parent="1">
          <mxGeometry x="-90" y="520" width="150" height="50" as="geometry" />
        </mxCell>
        <mxCell id="IQgrabaNGZLkLJbX3BjF-2" value="" style="endArrow=open;endSize=12;dashed=1;html=1;exitX=0;exitY=0.5;exitDx=0;exitDy=0;" edge="1" parent="1" source="Kt9bEg5-UDYtah8IdJmg-3">
          <mxGeometry width="160" relative="1" as="geometry">
            <mxPoint x="150" y="544.5" as="sourcePoint" />
            <mxPoint x="60" y="544.5" as="targetPoint" />
          </mxGeometry>
        </mxCell>
        <mxCell id="IQgrabaNGZLkLJbX3BjF-4" value="CCopyrightFiler" style="html=1;" vertex="1" parent="1">
          <mxGeometry x="-260" y="680" width="110" height="50" as="geometry" />
        </mxCell>
        <mxCell id="IQgrabaNGZLkLJbX3BjF-6" value="" style="endArrow=block;endSize=16;endFill=0;html=1;entryX=0.25;entryY=1;entryDx=0;entryDy=0;exitX=0.5;exitY=0;exitDx=0;exitDy=0;" edge="1" parent="1" source="Kt9bEg5-UDYtah8IdJmg-3" target="Kt9bEg5-UDYtah8IdJmg-2">
          <mxGeometry width="160" relative="1" as="geometry">
            <mxPoint x="140" y="710" as="sourcePoint" />
            <mxPoint x="300" y="710" as="targetPoint" />
            <Array as="points" />
          </mxGeometry>
        </mxCell>
        <mxCell id="IQgrabaNGZLkLJbX3BjF-7" value="" style="endArrow=block;endSize=16;endFill=0;html=1;entryX=0.75;entryY=1;entryDx=0;entryDy=0;exitX=0.5;exitY=0;exitDx=0;exitDy=0;" edge="1" parent="1" source="Kt9bEg5-UDYtah8IdJmg-4" target="Kt9bEg5-UDYtah8IdJmg-2">
          <mxGeometry width="160" relative="1" as="geometry">
            <mxPoint x="225" y="530" as="sourcePoint" />
            <mxPoint x="276.5" y="440" as="targetPoint" />
            <Array as="points" />
          </mxGeometry>
        </mxCell>
        <mxCell id="IQgrabaNGZLkLJbX3BjF-8" value="" style="endArrow=block;endSize=16;endFill=0;html=1;entryX=0.25;entryY=1;entryDx=0;entryDy=0;exitX=0.5;exitY=0;exitDx=0;exitDy=0;" edge="1" parent="1" source="IQgrabaNGZLkLJbX3BjF-4" target="IQgrabaNGZLkLJbX3BjF-1">
          <mxGeometry width="160" relative="1" as="geometry">
            <mxPoint x="-100" y="660" as="sourcePoint" />
            <mxPoint x="-48.5" y="570" as="targetPoint" />
            <Array as="points" />
          </mxGeometry>
        </mxCell>
        <mxCell id="IQgrabaNGZLkLJbX3BjF-9" value="CChildSexualityProtection" style="html=1;" vertex="1" parent="1">
          <mxGeometry x="-140" y="680" width="150" height="50" as="geometry" />
        </mxCell>
        <mxCell id="IQgrabaNGZLkLJbX3BjF-10" value="" style="endArrow=block;endSize=16;endFill=0;html=1;entryX=0.427;entryY=1;entryDx=0;entryDy=0;exitX=0.5;exitY=0;exitDx=0;exitDy=0;entryPerimeter=0;" edge="1" parent="1" source="IQgrabaNGZLkLJbX3BjF-9" target="IQgrabaNGZLkLJbX3BjF-1">
          <mxGeometry width="160" relative="1" as="geometry">
            <mxPoint x="-195" y="690" as="sourcePoint" />
            <mxPoint x="-80" y="580" as="targetPoint" />
            <Array as="points" />
          </mxGeometry>
        </mxCell>
        <mxCell id="IQgrabaNGZLkLJbX3BjF-11" value="CDownloadQos" style="html=1;" vertex="1" parent="1">
          <mxGeometry x="20" y="680" width="100" height="50" as="geometry" />
        </mxCell>
        <mxCell id="IQgrabaNGZLkLJbX3BjF-12" value="CLivePhotoFilter" style="html=1;" vertex="1" parent="1">
          <mxGeometry x="130" y="680" width="100" height="50" as="geometry" />
        </mxCell>
        <mxCell id="IQgrabaNGZLkLJbX3BjF-13" value="" style="endArrow=block;endSize=16;endFill=0;html=1;entryX=0.613;entryY=1.02;entryDx=0;entryDy=0;exitX=0.5;exitY=0;exitDx=0;exitDy=0;entryPerimeter=0;" edge="1" parent="1" source="IQgrabaNGZLkLJbX3BjF-11" target="IQgrabaNGZLkLJbX3BjF-1">
          <mxGeometry width="160" relative="1" as="geometry">
            <mxPoint x="-55" y="690" as="sourcePoint" />
            <mxPoint x="-5" y="580" as="targetPoint" />
            <Array as="points" />
          </mxGeometry>
        </mxCell>
        <mxCell id="IQgrabaNGZLkLJbX3BjF-14" value="" style="endArrow=block;endSize=16;endFill=0;html=1;entryX=0.75;entryY=1;entryDx=0;entryDy=0;exitX=0.25;exitY=0;exitDx=0;exitDy=0;" edge="1" parent="1" source="IQgrabaNGZLkLJbX3BjF-12" target="IQgrabaNGZLkLJbX3BjF-1">
          <mxGeometry width="160" relative="1" as="geometry">
            <mxPoint x="80" y="690" as="sourcePoint" />
            <mxPoint x="32.5" y="580" as="targetPoint" />
            <Array as="points" />
          </mxGeometry>
        </mxCell>
      </root>
    </mxGraphModel>
  </diagram>
</mxfile>
